<svg id="Layer_1" data-name="Layer 1" xmlns="http://www.w3.org/2000/svg" viewBox="0 0 100 100"><defs><style>.cls-1{fill:#af8362;}.cls-2{fill:#fff;}</style></defs><rect class="cls-1" width="100" height="100"/><path class="cls-2" d="M64.56,5.67c4.47,2.65,6,8.27,5.25,12.86-.83,5.29-4.32,8.78-8,12.24a20.83,20.83,0,0,0-3.5,4.17c-1.51,2.49-.9,4.91,1.35,6.63S64,43.08,66.18,41c2.65-2.52,5.25-5.09,8-7.51a14.06,14.06,0,0,1,19,.31,2.19,2.19,0,0,1,.3,2.08c-4,4.24-7.66,9.19-13.43,11.21C72.32,49.82,64.86,49,58.46,43.55c-7.83-6.66-9-17-4.59-25.37C56.39,13.41,61,9.74,64.56,5.67Z"/><path class="cls-2" d="M34,5.84c4.59,5,10.94,8.72,12.6,15.83,1.61,6.85,1.44,13.71-3.76,19.47C37.3,47.3,30.5,49.56,22.37,48.07a20.53,20.53,0,0,1-11.75-6.86c-1.52-1.69-3.15-3.28-4.8-4.83-1.09-1-1.1-1.87,0-2.82a14.18,14.18,0,0,1,8.3-3.5c5.23-.39,9.16,1.72,12.61,5.39a73.34,73.34,0,0,0,6.82,6.37A4.41,4.41,0,0,0,39.87,41c1.66-2.4,2.6-4.64.5-6.86Q37,30.49,33.4,27c-5.3-5.22-6.32-14.76-.3-20.68A4.61,4.61,0,0,1,34,5.84Z"/><path class="cls-2" d="M65.93,94.33c4.48-2.65,6-8.27,5.25-12.86-.82-5.29-4.32-8.78-8-12.24a20.83,20.83,0,0,1-3.5-4.17,4.7,4.7,0,0,1,1.34-6.63c2.21-1.7,4.32-1.51,6.5.56,2.65,2.52,5.25,5.09,8,7.51a14,14,0,0,0,19-.31,2.19,2.19,0,0,0,.31-2.08c-4.06-4.24-7.66-9.19-13.43-11.21C73.69,50.18,66.24,51,59.84,56.45c-7.84,6.66-9,17-4.59,25.37C57.77,86.59,62.36,90.26,65.93,94.33Z"/><path class="cls-2" d="M35.39,94.16C40,89.2,46.33,85.44,48,78.33c1.61-6.85,1.44-13.71-3.76-19.47-5.56-6.16-12.36-8.42-20.49-6.93A20.51,20.51,0,0,0,12,58.79c-1.52,1.69-3.15,3.28-4.81,4.83-1.08,1-1.09,1.87,0,2.82a14.16,14.16,0,0,0,8.29,3.5c5.23.39,9.17-1.72,12.62-5.39a73.34,73.34,0,0,1,6.82-6.37,4.41,4.41,0,0,1,6.31.86c1.65,2.4,2.6,4.64.5,6.86q-3.42,3.61-7,7.1c-5.3,5.22-6.32,14.76-.3,20.68A4.32,4.32,0,0,0,35.39,94.16Z"/></svg>